<mxfile host="app.diagrams.net" modified="2023-11-25T19:24:33.598Z" agent="Mozilla/5.0 (Windows NT 10.0; Win64; x64) AppleWebKit/537.36 (KHTML, like Gecko) Chrome/119.0.0.0 Safari/537.36 Edg/119.0.0.0" etag="xlY8PiluRCJTL1cMMyp5" version="22.1.4" type="github">
  <diagram id="C5RBs43oDa-KdzZeNtuy" name="Page-1">
    <mxGraphModel dx="986" dy="676" grid="1" gridSize="10" guides="1" tooltips="1" connect="1" arrows="1" fold="1" page="1" pageScale="1" pageWidth="827" pageHeight="1169" math="0" shadow="0">
      <root>
        <mxCell id="WIyWlLk6GJQsqaUBKTNV-0" />
        <mxCell id="WIyWlLk6GJQsqaUBKTNV-1" parent="WIyWlLk6GJQsqaUBKTNV-0" />
        <mxCell id="WIyWlLk6GJQsqaUBKTNV-2" value="" style="rounded=0;html=1;jettySize=auto;orthogonalLoop=1;fontSize=11;endArrow=block;endFill=0;endSize=8;strokeWidth=1;shadow=0;labelBackgroundColor=none;edgeStyle=orthogonalEdgeStyle;" parent="WIyWlLk6GJQsqaUBKTNV-1" source="WIyWlLk6GJQsqaUBKTNV-3" target="WIyWlLk6GJQsqaUBKTNV-6" edge="1">
          <mxGeometry relative="1" as="geometry" />
        </mxCell>
        <mxCell id="WIyWlLk6GJQsqaUBKTNV-3" value="Calculadora" style="rounded=1;whiteSpace=wrap;html=1;fontSize=12;glass=0;strokeWidth=1;shadow=0;" parent="WIyWlLk6GJQsqaUBKTNV-1" vertex="1">
          <mxGeometry x="45" y="10" width="120" height="40" as="geometry" />
        </mxCell>
        <mxCell id="WIyWlLk6GJQsqaUBKTNV-4" value="Yes" style="rounded=0;html=1;jettySize=auto;orthogonalLoop=1;fontSize=11;endArrow=block;endFill=0;endSize=8;strokeWidth=1;shadow=0;labelBackgroundColor=none;edgeStyle=orthogonalEdgeStyle;" parent="WIyWlLk6GJQsqaUBKTNV-1" source="WIyWlLk6GJQsqaUBKTNV-6" target="WIyWlLk6GJQsqaUBKTNV-10" edge="1">
          <mxGeometry x="-1" y="104" relative="1" as="geometry">
            <mxPoint x="-19" y="-60" as="offset" />
          </mxGeometry>
        </mxCell>
        <mxCell id="WIyWlLk6GJQsqaUBKTNV-5" value="No" style="edgeStyle=orthogonalEdgeStyle;rounded=0;html=1;jettySize=auto;orthogonalLoop=1;fontSize=11;endArrow=block;endFill=0;endSize=8;strokeWidth=1;shadow=0;labelBackgroundColor=none;" parent="WIyWlLk6GJQsqaUBKTNV-1" source="WIyWlLk6GJQsqaUBKTNV-6" target="WIyWlLk6GJQsqaUBKTNV-7" edge="1">
          <mxGeometry x="-1" y="-64" relative="1" as="geometry">
            <mxPoint x="-40" y="-14" as="offset" />
          </mxGeometry>
        </mxCell>
        <mxCell id="WIyWlLk6GJQsqaUBKTNV-6" value="Usuario ingreso 1" style="rhombus;whiteSpace=wrap;html=1;shadow=0;fontFamily=Helvetica;fontSize=12;align=center;strokeWidth=1;spacing=6;spacingTop=-4;" parent="WIyWlLk6GJQsqaUBKTNV-1" vertex="1">
          <mxGeometry x="40" y="350" width="130" height="80" as="geometry" />
        </mxCell>
        <mxCell id="WIyWlLk6GJQsqaUBKTNV-7" value="Pedir numero 1 y numero 2" style="rounded=1;whiteSpace=wrap;html=1;fontSize=12;glass=0;strokeWidth=1;shadow=0;" parent="WIyWlLk6GJQsqaUBKTNV-1" vertex="1">
          <mxGeometry x="220" y="370" width="120" height="40" as="geometry" />
        </mxCell>
        <mxCell id="WIyWlLk6GJQsqaUBKTNV-8" value="No" style="rounded=0;html=1;jettySize=auto;orthogonalLoop=1;fontSize=11;endArrow=block;endFill=0;endSize=8;strokeWidth=1;shadow=0;labelBackgroundColor=none;edgeStyle=orthogonalEdgeStyle;" parent="WIyWlLk6GJQsqaUBKTNV-1" source="WIyWlLk6GJQsqaUBKTNV-10" edge="1">
          <mxGeometry x="0.3333" y="20" relative="1" as="geometry">
            <mxPoint as="offset" />
            <mxPoint x="105" y="740" as="targetPoint" />
          </mxGeometry>
        </mxCell>
        <mxCell id="WIyWlLk6GJQsqaUBKTNV-9" value="Yes" style="edgeStyle=orthogonalEdgeStyle;rounded=0;html=1;jettySize=auto;orthogonalLoop=1;fontSize=11;endArrow=block;endFill=0;endSize=8;strokeWidth=1;shadow=0;labelBackgroundColor=none;" parent="WIyWlLk6GJQsqaUBKTNV-1" source="WIyWlLk6GJQsqaUBKTNV-10" target="WIyWlLk6GJQsqaUBKTNV-12" edge="1">
          <mxGeometry y="10" relative="1" as="geometry">
            <mxPoint as="offset" />
          </mxGeometry>
        </mxCell>
        <mxCell id="WIyWlLk6GJQsqaUBKTNV-10" value="Usuario ingreso 2" style="rhombus;whiteSpace=wrap;html=1;shadow=0;fontFamily=Helvetica;fontSize=12;align=center;strokeWidth=1;spacing=6;spacingTop=-4;" parent="WIyWlLk6GJQsqaUBKTNV-1" vertex="1">
          <mxGeometry x="55" y="550" width="100" height="80" as="geometry" />
        </mxCell>
        <mxCell id="VbYfiZYeQkaGiVDRSeSV-19" value="" style="edgeStyle=orthogonalEdgeStyle;rounded=0;orthogonalLoop=1;jettySize=auto;html=1;" edge="1" parent="WIyWlLk6GJQsqaUBKTNV-1" source="WIyWlLk6GJQsqaUBKTNV-12" target="VbYfiZYeQkaGiVDRSeSV-14">
          <mxGeometry relative="1" as="geometry" />
        </mxCell>
        <mxCell id="WIyWlLk6GJQsqaUBKTNV-12" value="Pedir numero 1 y numero 2" style="rounded=1;whiteSpace=wrap;html=1;fontSize=12;glass=0;strokeWidth=1;shadow=0;" parent="WIyWlLk6GJQsqaUBKTNV-1" vertex="1">
          <mxGeometry x="240" y="570" width="120" height="40" as="geometry" />
        </mxCell>
        <mxCell id="VbYfiZYeQkaGiVDRSeSV-4" value="" style="edgeStyle=orthogonalEdgeStyle;rounded=0;orthogonalLoop=1;jettySize=auto;html=1;" edge="1" parent="WIyWlLk6GJQsqaUBKTNV-1" source="VbYfiZYeQkaGiVDRSeSV-0" target="VbYfiZYeQkaGiVDRSeSV-3">
          <mxGeometry relative="1" as="geometry" />
        </mxCell>
        <mxCell id="VbYfiZYeQkaGiVDRSeSV-6" value="" style="edgeStyle=orthogonalEdgeStyle;rounded=0;orthogonalLoop=1;jettySize=auto;html=1;" edge="1" parent="WIyWlLk6GJQsqaUBKTNV-1" source="VbYfiZYeQkaGiVDRSeSV-0" target="VbYfiZYeQkaGiVDRSeSV-5">
          <mxGeometry relative="1" as="geometry" />
        </mxCell>
        <mxCell id="VbYfiZYeQkaGiVDRSeSV-0" value="Los datos ingresados son numeros&amp;nbsp;" style="rhombus;whiteSpace=wrap;html=1;" vertex="1" parent="WIyWlLk6GJQsqaUBKTNV-1">
          <mxGeometry x="380" y="345" width="110" height="90" as="geometry" />
        </mxCell>
        <mxCell id="VbYfiZYeQkaGiVDRSeSV-2" value="" style="endArrow=classic;html=1;rounded=0;entryX=0;entryY=0.5;entryDx=0;entryDy=0;exitX=1;exitY=0.5;exitDx=0;exitDy=0;" edge="1" parent="WIyWlLk6GJQsqaUBKTNV-1" source="WIyWlLk6GJQsqaUBKTNV-7" target="VbYfiZYeQkaGiVDRSeSV-0">
          <mxGeometry width="50" height="50" relative="1" as="geometry">
            <mxPoint x="350" y="390" as="sourcePoint" />
            <mxPoint x="400" y="340" as="targetPoint" />
          </mxGeometry>
        </mxCell>
        <mxCell id="VbYfiZYeQkaGiVDRSeSV-73" style="edgeStyle=orthogonalEdgeStyle;rounded=0;orthogonalLoop=1;jettySize=auto;html=1;exitX=0.5;exitY=0;exitDx=0;exitDy=0;entryX=1;entryY=0.5;entryDx=0;entryDy=0;" edge="1" parent="WIyWlLk6GJQsqaUBKTNV-1" source="VbYfiZYeQkaGiVDRSeSV-3" target="VbYfiZYeQkaGiVDRSeSV-72">
          <mxGeometry relative="1" as="geometry">
            <Array as="points">
              <mxPoint x="435" y="200" />
              <mxPoint x="360" y="200" />
            </Array>
          </mxGeometry>
        </mxCell>
        <mxCell id="VbYfiZYeQkaGiVDRSeSV-3" value="Realizar suma&amp;nbsp;" style="rounded=1;whiteSpace=wrap;html=1;" vertex="1" parent="WIyWlLk6GJQsqaUBKTNV-1">
          <mxGeometry x="375" y="230" width="120" height="60" as="geometry" />
        </mxCell>
        <mxCell id="VbYfiZYeQkaGiVDRSeSV-5" value="Pedir al usuario ingresar datos numericos" style="rounded=1;whiteSpace=wrap;html=1;" vertex="1" parent="WIyWlLk6GJQsqaUBKTNV-1">
          <mxGeometry x="565" y="360" width="120" height="60" as="geometry" />
        </mxCell>
        <mxCell id="VbYfiZYeQkaGiVDRSeSV-8" value="Yes" style="text;html=1;align=center;verticalAlign=middle;resizable=0;points=[];autosize=1;strokeColor=none;fillColor=none;" vertex="1" parent="WIyWlLk6GJQsqaUBKTNV-1">
          <mxGeometry x="450" y="288" width="40" height="30" as="geometry" />
        </mxCell>
        <mxCell id="VbYfiZYeQkaGiVDRSeSV-9" value="No" style="text;html=1;align=center;verticalAlign=middle;resizable=0;points=[];autosize=1;strokeColor=none;fillColor=none;" vertex="1" parent="WIyWlLk6GJQsqaUBKTNV-1">
          <mxGeometry x="510" y="358" width="40" height="30" as="geometry" />
        </mxCell>
        <mxCell id="VbYfiZYeQkaGiVDRSeSV-17" value="" style="edgeStyle=orthogonalEdgeStyle;rounded=0;orthogonalLoop=1;jettySize=auto;html=1;" edge="1" parent="WIyWlLk6GJQsqaUBKTNV-1" source="VbYfiZYeQkaGiVDRSeSV-14" target="VbYfiZYeQkaGiVDRSeSV-16">
          <mxGeometry relative="1" as="geometry" />
        </mxCell>
        <mxCell id="VbYfiZYeQkaGiVDRSeSV-18" value="" style="edgeStyle=orthogonalEdgeStyle;rounded=0;orthogonalLoop=1;jettySize=auto;html=1;" edge="1" parent="WIyWlLk6GJQsqaUBKTNV-1" source="VbYfiZYeQkaGiVDRSeSV-14" target="VbYfiZYeQkaGiVDRSeSV-15">
          <mxGeometry relative="1" as="geometry" />
        </mxCell>
        <mxCell id="VbYfiZYeQkaGiVDRSeSV-14" value="Los datos ingresados son numeros&amp;nbsp;" style="rhombus;whiteSpace=wrap;html=1;" vertex="1" parent="WIyWlLk6GJQsqaUBKTNV-1">
          <mxGeometry x="390" y="545" width="110" height="90" as="geometry" />
        </mxCell>
        <mxCell id="VbYfiZYeQkaGiVDRSeSV-15" value="Pedir al usuario ingresar datos numericos" style="rounded=1;whiteSpace=wrap;html=1;" vertex="1" parent="WIyWlLk6GJQsqaUBKTNV-1">
          <mxGeometry x="565" y="560" width="120" height="60" as="geometry" />
        </mxCell>
        <mxCell id="VbYfiZYeQkaGiVDRSeSV-74" style="edgeStyle=orthogonalEdgeStyle;rounded=0;orthogonalLoop=1;jettySize=auto;html=1;exitX=1;exitY=0.5;exitDx=0;exitDy=0;entryX=1;entryY=0.75;entryDx=0;entryDy=0;" edge="1" parent="WIyWlLk6GJQsqaUBKTNV-1" source="VbYfiZYeQkaGiVDRSeSV-16" target="VbYfiZYeQkaGiVDRSeSV-72">
          <mxGeometry relative="1" as="geometry">
            <Array as="points">
              <mxPoint x="690" y="490" />
              <mxPoint x="690" y="190" />
              <mxPoint x="360" y="190" />
            </Array>
          </mxGeometry>
        </mxCell>
        <mxCell id="VbYfiZYeQkaGiVDRSeSV-16" value="Realizar resta" style="rounded=1;whiteSpace=wrap;html=1;" vertex="1" parent="WIyWlLk6GJQsqaUBKTNV-1">
          <mxGeometry x="385" y="460" width="120" height="60" as="geometry" />
        </mxCell>
        <mxCell id="VbYfiZYeQkaGiVDRSeSV-20" value="Yes" style="text;html=1;align=center;verticalAlign=middle;resizable=0;points=[];autosize=1;strokeColor=none;fillColor=none;" vertex="1" parent="WIyWlLk6GJQsqaUBKTNV-1">
          <mxGeometry x="440" y="518" width="40" height="30" as="geometry" />
        </mxCell>
        <mxCell id="VbYfiZYeQkaGiVDRSeSV-21" value="No" style="text;html=1;align=center;verticalAlign=middle;resizable=0;points=[];autosize=1;strokeColor=none;fillColor=none;" vertex="1" parent="WIyWlLk6GJQsqaUBKTNV-1">
          <mxGeometry x="510" y="588" width="40" height="30" as="geometry" />
        </mxCell>
        <mxCell id="VbYfiZYeQkaGiVDRSeSV-30" value="" style="edgeStyle=orthogonalEdgeStyle;rounded=0;orthogonalLoop=1;jettySize=auto;html=1;" edge="1" parent="WIyWlLk6GJQsqaUBKTNV-1" source="VbYfiZYeQkaGiVDRSeSV-22" target="VbYfiZYeQkaGiVDRSeSV-26">
          <mxGeometry relative="1" as="geometry" />
        </mxCell>
        <mxCell id="VbYfiZYeQkaGiVDRSeSV-38" value="" style="edgeStyle=orthogonalEdgeStyle;rounded=0;orthogonalLoop=1;jettySize=auto;html=1;" edge="1" parent="WIyWlLk6GJQsqaUBKTNV-1" source="VbYfiZYeQkaGiVDRSeSV-22" target="VbYfiZYeQkaGiVDRSeSV-25">
          <mxGeometry relative="1" as="geometry" />
        </mxCell>
        <mxCell id="VbYfiZYeQkaGiVDRSeSV-22" value="Usuario ingreso 3" style="rhombus;whiteSpace=wrap;html=1;shadow=0;fontFamily=Helvetica;fontSize=12;align=center;strokeWidth=1;spacing=6;spacingTop=-4;" vertex="1" parent="WIyWlLk6GJQsqaUBKTNV-1">
          <mxGeometry x="55" y="740" width="100" height="80" as="geometry" />
        </mxCell>
        <mxCell id="VbYfiZYeQkaGiVDRSeSV-83" value="" style="edgeStyle=orthogonalEdgeStyle;rounded=0;orthogonalLoop=1;jettySize=auto;html=1;" edge="1" parent="WIyWlLk6GJQsqaUBKTNV-1" source="VbYfiZYeQkaGiVDRSeSV-23" target="VbYfiZYeQkaGiVDRSeSV-52">
          <mxGeometry relative="1" as="geometry" />
        </mxCell>
        <mxCell id="VbYfiZYeQkaGiVDRSeSV-91" value="" style="edgeStyle=orthogonalEdgeStyle;rounded=0;orthogonalLoop=1;jettySize=auto;html=1;" edge="1" parent="WIyWlLk6GJQsqaUBKTNV-1" source="VbYfiZYeQkaGiVDRSeSV-23" target="VbYfiZYeQkaGiVDRSeSV-37">
          <mxGeometry relative="1" as="geometry" />
        </mxCell>
        <mxCell id="VbYfiZYeQkaGiVDRSeSV-23" value="Usuario ingreso 6" style="rhombus;whiteSpace=wrap;html=1;shadow=0;fontFamily=Helvetica;fontSize=12;align=center;strokeWidth=1;spacing=6;spacingTop=-4;" vertex="1" parent="WIyWlLk6GJQsqaUBKTNV-1">
          <mxGeometry x="55" y="1349" width="100" height="80" as="geometry" />
        </mxCell>
        <mxCell id="VbYfiZYeQkaGiVDRSeSV-62" style="edgeStyle=orthogonalEdgeStyle;rounded=0;orthogonalLoop=1;jettySize=auto;html=1;" edge="1" parent="WIyWlLk6GJQsqaUBKTNV-1" source="VbYfiZYeQkaGiVDRSeSV-24" target="VbYfiZYeQkaGiVDRSeSV-23">
          <mxGeometry relative="1" as="geometry" />
        </mxCell>
        <mxCell id="VbYfiZYeQkaGiVDRSeSV-63" style="edgeStyle=orthogonalEdgeStyle;rounded=0;orthogonalLoop=1;jettySize=auto;html=1;entryX=0;entryY=0.5;entryDx=0;entryDy=0;" edge="1" parent="WIyWlLk6GJQsqaUBKTNV-1" source="VbYfiZYeQkaGiVDRSeSV-24" target="VbYfiZYeQkaGiVDRSeSV-51">
          <mxGeometry relative="1" as="geometry" />
        </mxCell>
        <mxCell id="VbYfiZYeQkaGiVDRSeSV-24" value="Usuario ingreso 5" style="rhombus;whiteSpace=wrap;html=1;shadow=0;fontFamily=Helvetica;fontSize=12;align=center;strokeWidth=1;spacing=6;spacingTop=-4;" vertex="1" parent="WIyWlLk6GJQsqaUBKTNV-1">
          <mxGeometry x="55" y="1120" width="100" height="80" as="geometry" />
        </mxCell>
        <mxCell id="VbYfiZYeQkaGiVDRSeSV-40" value="" style="edgeStyle=orthogonalEdgeStyle;rounded=0;orthogonalLoop=1;jettySize=auto;html=1;" edge="1" parent="WIyWlLk6GJQsqaUBKTNV-1" source="VbYfiZYeQkaGiVDRSeSV-25" target="VbYfiZYeQkaGiVDRSeSV-39">
          <mxGeometry relative="1" as="geometry" />
        </mxCell>
        <mxCell id="VbYfiZYeQkaGiVDRSeSV-50" value="" style="edgeStyle=orthogonalEdgeStyle;rounded=0;orthogonalLoop=1;jettySize=auto;html=1;" edge="1" parent="WIyWlLk6GJQsqaUBKTNV-1" source="VbYfiZYeQkaGiVDRSeSV-25" target="VbYfiZYeQkaGiVDRSeSV-24">
          <mxGeometry relative="1" as="geometry" />
        </mxCell>
        <mxCell id="VbYfiZYeQkaGiVDRSeSV-25" value="Usuario ingreso 4" style="rhombus;whiteSpace=wrap;html=1;shadow=0;fontFamily=Helvetica;fontSize=12;align=center;strokeWidth=1;spacing=6;spacingTop=-4;" vertex="1" parent="WIyWlLk6GJQsqaUBKTNV-1">
          <mxGeometry x="55" y="920" width="100" height="80" as="geometry" />
        </mxCell>
        <mxCell id="VbYfiZYeQkaGiVDRSeSV-31" value="" style="edgeStyle=orthogonalEdgeStyle;rounded=0;orthogonalLoop=1;jettySize=auto;html=1;" edge="1" parent="WIyWlLk6GJQsqaUBKTNV-1" source="VbYfiZYeQkaGiVDRSeSV-26" target="VbYfiZYeQkaGiVDRSeSV-27">
          <mxGeometry relative="1" as="geometry" />
        </mxCell>
        <mxCell id="VbYfiZYeQkaGiVDRSeSV-26" value="Pedir numero 1 y numero 2" style="rounded=1;whiteSpace=wrap;html=1;fontSize=12;glass=0;strokeWidth=1;shadow=0;" vertex="1" parent="WIyWlLk6GJQsqaUBKTNV-1">
          <mxGeometry x="240" y="760" width="120" height="40" as="geometry" />
        </mxCell>
        <mxCell id="VbYfiZYeQkaGiVDRSeSV-32" value="" style="edgeStyle=orthogonalEdgeStyle;rounded=0;orthogonalLoop=1;jettySize=auto;html=1;" edge="1" parent="WIyWlLk6GJQsqaUBKTNV-1" source="VbYfiZYeQkaGiVDRSeSV-27" target="VbYfiZYeQkaGiVDRSeSV-28">
          <mxGeometry relative="1" as="geometry" />
        </mxCell>
        <mxCell id="VbYfiZYeQkaGiVDRSeSV-33" value="" style="edgeStyle=orthogonalEdgeStyle;rounded=0;orthogonalLoop=1;jettySize=auto;html=1;" edge="1" parent="WIyWlLk6GJQsqaUBKTNV-1" source="VbYfiZYeQkaGiVDRSeSV-27" target="VbYfiZYeQkaGiVDRSeSV-29">
          <mxGeometry relative="1" as="geometry" />
        </mxCell>
        <mxCell id="VbYfiZYeQkaGiVDRSeSV-27" value="Los datos ingresados son numeros&amp;nbsp;" style="rhombus;whiteSpace=wrap;html=1;" vertex="1" parent="WIyWlLk6GJQsqaUBKTNV-1">
          <mxGeometry x="390" y="740" width="110" height="80" as="geometry" />
        </mxCell>
        <mxCell id="VbYfiZYeQkaGiVDRSeSV-75" style="edgeStyle=orthogonalEdgeStyle;rounded=0;orthogonalLoop=1;jettySize=auto;html=1;exitX=1;exitY=0.5;exitDx=0;exitDy=0;entryX=1;entryY=0.5;entryDx=0;entryDy=0;" edge="1" parent="WIyWlLk6GJQsqaUBKTNV-1" source="VbYfiZYeQkaGiVDRSeSV-28" target="VbYfiZYeQkaGiVDRSeSV-72">
          <mxGeometry relative="1" as="geometry">
            <Array as="points">
              <mxPoint x="700" y="680" />
              <mxPoint x="700" y="180" />
            </Array>
          </mxGeometry>
        </mxCell>
        <mxCell id="VbYfiZYeQkaGiVDRSeSV-28" value="Realizar multiplicación" style="rounded=1;whiteSpace=wrap;html=1;" vertex="1" parent="WIyWlLk6GJQsqaUBKTNV-1">
          <mxGeometry x="385" y="650" width="120" height="60" as="geometry" />
        </mxCell>
        <mxCell id="VbYfiZYeQkaGiVDRSeSV-29" value="Pedir al usuario ingresar datos numericos" style="rounded=1;whiteSpace=wrap;html=1;" vertex="1" parent="WIyWlLk6GJQsqaUBKTNV-1">
          <mxGeometry x="565" y="750" width="120" height="60" as="geometry" />
        </mxCell>
        <mxCell id="VbYfiZYeQkaGiVDRSeSV-34" value="Yes" style="text;html=1;align=center;verticalAlign=middle;resizable=0;points=[];autosize=1;strokeColor=none;fillColor=none;" vertex="1" parent="WIyWlLk6GJQsqaUBKTNV-1">
          <mxGeometry x="450" y="718" width="40" height="30" as="geometry" />
        </mxCell>
        <mxCell id="VbYfiZYeQkaGiVDRSeSV-35" value="No" style="text;html=1;align=center;verticalAlign=middle;resizable=0;points=[];autosize=1;strokeColor=none;fillColor=none;" vertex="1" parent="WIyWlLk6GJQsqaUBKTNV-1">
          <mxGeometry x="510" y="780" width="40" height="30" as="geometry" />
        </mxCell>
        <mxCell id="VbYfiZYeQkaGiVDRSeSV-36" value="Yes" style="text;html=1;align=center;verticalAlign=middle;resizable=0;points=[];autosize=1;strokeColor=none;fillColor=none;" vertex="1" parent="WIyWlLk6GJQsqaUBKTNV-1">
          <mxGeometry x="170" y="748" width="40" height="30" as="geometry" />
        </mxCell>
        <mxCell id="VbYfiZYeQkaGiVDRSeSV-99" value="" style="edgeStyle=orthogonalEdgeStyle;rounded=0;orthogonalLoop=1;jettySize=auto;html=1;" edge="1" parent="WIyWlLk6GJQsqaUBKTNV-1" source="VbYfiZYeQkaGiVDRSeSV-37" target="VbYfiZYeQkaGiVDRSeSV-53">
          <mxGeometry relative="1" as="geometry" />
        </mxCell>
        <mxCell id="VbYfiZYeQkaGiVDRSeSV-101" value="" style="edgeStyle=orthogonalEdgeStyle;rounded=0;orthogonalLoop=1;jettySize=auto;html=1;" edge="1" parent="WIyWlLk6GJQsqaUBKTNV-1" source="VbYfiZYeQkaGiVDRSeSV-37" target="VbYfiZYeQkaGiVDRSeSV-100">
          <mxGeometry relative="1" as="geometry" />
        </mxCell>
        <mxCell id="VbYfiZYeQkaGiVDRSeSV-37" value="Usuario ingreso 7" style="rhombus;whiteSpace=wrap;html=1;shadow=0;fontFamily=Helvetica;fontSize=12;align=center;strokeWidth=1;spacing=6;spacingTop=-4;" vertex="1" parent="WIyWlLk6GJQsqaUBKTNV-1">
          <mxGeometry x="55" y="1490" width="100" height="80" as="geometry" />
        </mxCell>
        <mxCell id="VbYfiZYeQkaGiVDRSeSV-42" value="" style="edgeStyle=orthogonalEdgeStyle;rounded=0;orthogonalLoop=1;jettySize=auto;html=1;" edge="1" parent="WIyWlLk6GJQsqaUBKTNV-1" source="VbYfiZYeQkaGiVDRSeSV-39" target="VbYfiZYeQkaGiVDRSeSV-41">
          <mxGeometry relative="1" as="geometry" />
        </mxCell>
        <mxCell id="VbYfiZYeQkaGiVDRSeSV-39" value="Pedir numero 1 y numero 2" style="rounded=1;whiteSpace=wrap;html=1;shadow=0;strokeWidth=1;spacing=6;spacingTop=-4;" vertex="1" parent="WIyWlLk6GJQsqaUBKTNV-1">
          <mxGeometry x="225" y="930" width="120" height="60" as="geometry" />
        </mxCell>
        <mxCell id="VbYfiZYeQkaGiVDRSeSV-47" value="" style="edgeStyle=orthogonalEdgeStyle;rounded=0;orthogonalLoop=1;jettySize=auto;html=1;" edge="1" parent="WIyWlLk6GJQsqaUBKTNV-1" source="VbYfiZYeQkaGiVDRSeSV-41" target="VbYfiZYeQkaGiVDRSeSV-46">
          <mxGeometry relative="1" as="geometry" />
        </mxCell>
        <mxCell id="VbYfiZYeQkaGiVDRSeSV-49" value="" style="edgeStyle=orthogonalEdgeStyle;rounded=0;orthogonalLoop=1;jettySize=auto;html=1;" edge="1" parent="WIyWlLk6GJQsqaUBKTNV-1" source="VbYfiZYeQkaGiVDRSeSV-41">
          <mxGeometry relative="1" as="geometry">
            <mxPoint x="585" y="960" as="targetPoint" />
          </mxGeometry>
        </mxCell>
        <mxCell id="VbYfiZYeQkaGiVDRSeSV-41" value="Los datos ingresados son numeros&amp;nbsp;" style="rhombus;whiteSpace=wrap;html=1;rounded=1;shadow=0;strokeWidth=1;spacing=6;spacingTop=-4;" vertex="1" parent="WIyWlLk6GJQsqaUBKTNV-1">
          <mxGeometry x="425" y="910" width="115" height="100" as="geometry" />
        </mxCell>
        <mxCell id="VbYfiZYeQkaGiVDRSeSV-76" style="edgeStyle=orthogonalEdgeStyle;rounded=0;orthogonalLoop=1;jettySize=auto;html=1;entryX=1;entryY=0.25;entryDx=0;entryDy=0;" edge="1" parent="WIyWlLk6GJQsqaUBKTNV-1" source="VbYfiZYeQkaGiVDRSeSV-46" target="VbYfiZYeQkaGiVDRSeSV-72">
          <mxGeometry relative="1" as="geometry">
            <Array as="points">
              <mxPoint x="710" y="860" />
              <mxPoint x="710" y="165" />
            </Array>
          </mxGeometry>
        </mxCell>
        <mxCell id="VbYfiZYeQkaGiVDRSeSV-46" value="División" style="rounded=1;whiteSpace=wrap;html=1;" vertex="1" parent="WIyWlLk6GJQsqaUBKTNV-1">
          <mxGeometry x="425" y="830" width="120" height="60" as="geometry" />
        </mxCell>
        <mxCell id="VbYfiZYeQkaGiVDRSeSV-48" value="" style="rounded=1;whiteSpace=wrap;html=1;shadow=0;strokeWidth=1;spacing=6;spacingTop=-4;" vertex="1" parent="WIyWlLk6GJQsqaUBKTNV-1">
          <mxGeometry x="585" y="750" width="120" height="60" as="geometry" />
        </mxCell>
        <mxCell id="VbYfiZYeQkaGiVDRSeSV-64" value="" style="edgeStyle=orthogonalEdgeStyle;rounded=0;orthogonalLoop=1;jettySize=auto;html=1;" edge="1" parent="WIyWlLk6GJQsqaUBKTNV-1" source="VbYfiZYeQkaGiVDRSeSV-51" target="VbYfiZYeQkaGiVDRSeSV-54">
          <mxGeometry relative="1" as="geometry" />
        </mxCell>
        <mxCell id="VbYfiZYeQkaGiVDRSeSV-51" value="Pedir al usuario un numero y la potencia a la que desea elevar" style="rounded=1;whiteSpace=wrap;html=1;shadow=0;strokeWidth=1;spacing=6;spacingTop=-4;" vertex="1" parent="WIyWlLk6GJQsqaUBKTNV-1">
          <mxGeometry x="225" y="1130" width="120" height="60" as="geometry" />
        </mxCell>
        <mxCell id="VbYfiZYeQkaGiVDRSeSV-84" value="" style="edgeStyle=orthogonalEdgeStyle;rounded=0;orthogonalLoop=1;jettySize=auto;html=1;" edge="1" parent="WIyWlLk6GJQsqaUBKTNV-1" source="VbYfiZYeQkaGiVDRSeSV-52" target="VbYfiZYeQkaGiVDRSeSV-55">
          <mxGeometry relative="1" as="geometry" />
        </mxCell>
        <mxCell id="VbYfiZYeQkaGiVDRSeSV-52" value="Pedir al usuario el numero al que desea sacar la raíz" style="rounded=1;whiteSpace=wrap;html=1;shadow=0;strokeWidth=1;spacing=6;spacingTop=-4;" vertex="1" parent="WIyWlLk6GJQsqaUBKTNV-1">
          <mxGeometry x="220" y="1359" width="120" height="60" as="geometry" />
        </mxCell>
        <mxCell id="VbYfiZYeQkaGiVDRSeSV-53" value="Decir adiós y salir del programa" style="rounded=1;whiteSpace=wrap;html=1;shadow=0;strokeWidth=1;spacing=6;spacingTop=-4;" vertex="1" parent="WIyWlLk6GJQsqaUBKTNV-1">
          <mxGeometry x="220" y="1500" width="120" height="60" as="geometry" />
        </mxCell>
        <mxCell id="VbYfiZYeQkaGiVDRSeSV-65" value="" style="edgeStyle=orthogonalEdgeStyle;rounded=0;orthogonalLoop=1;jettySize=auto;html=1;" edge="1" parent="WIyWlLk6GJQsqaUBKTNV-1" source="VbYfiZYeQkaGiVDRSeSV-54" target="VbYfiZYeQkaGiVDRSeSV-59">
          <mxGeometry relative="1" as="geometry" />
        </mxCell>
        <mxCell id="VbYfiZYeQkaGiVDRSeSV-66" value="" style="edgeStyle=orthogonalEdgeStyle;rounded=0;orthogonalLoop=1;jettySize=auto;html=1;" edge="1" parent="WIyWlLk6GJQsqaUBKTNV-1" source="VbYfiZYeQkaGiVDRSeSV-54">
          <mxGeometry relative="1" as="geometry">
            <mxPoint x="585" y="1160" as="targetPoint" />
          </mxGeometry>
        </mxCell>
        <mxCell id="VbYfiZYeQkaGiVDRSeSV-54" value="Los datos ingresados son correctos" style="rhombus;whiteSpace=wrap;html=1;rounded=1;shadow=0;strokeWidth=1;spacing=6;spacingTop=-4;" vertex="1" parent="WIyWlLk6GJQsqaUBKTNV-1">
          <mxGeometry x="430" y="1110" width="105" height="100" as="geometry" />
        </mxCell>
        <mxCell id="VbYfiZYeQkaGiVDRSeSV-85" value="" style="edgeStyle=orthogonalEdgeStyle;rounded=0;orthogonalLoop=1;jettySize=auto;html=1;" edge="1" parent="WIyWlLk6GJQsqaUBKTNV-1" source="VbYfiZYeQkaGiVDRSeSV-55" target="VbYfiZYeQkaGiVDRSeSV-57">
          <mxGeometry relative="1" as="geometry" />
        </mxCell>
        <mxCell id="VbYfiZYeQkaGiVDRSeSV-87" value="" style="edgeStyle=orthogonalEdgeStyle;rounded=0;orthogonalLoop=1;jettySize=auto;html=1;" edge="1" parent="WIyWlLk6GJQsqaUBKTNV-1" source="VbYfiZYeQkaGiVDRSeSV-55" target="VbYfiZYeQkaGiVDRSeSV-86">
          <mxGeometry relative="1" as="geometry" />
        </mxCell>
        <mxCell id="VbYfiZYeQkaGiVDRSeSV-55" value="El dato ingresado es un numero positivo" style="rhombus;whiteSpace=wrap;html=1;rounded=1;shadow=0;strokeWidth=1;spacing=6;spacingTop=-4;" vertex="1" parent="WIyWlLk6GJQsqaUBKTNV-1">
          <mxGeometry x="450" y="1328.5" width="90" height="121" as="geometry" />
        </mxCell>
        <mxCell id="VbYfiZYeQkaGiVDRSeSV-56" value="Pedir al usuario que ingrese datos numericos" style="rounded=1;whiteSpace=wrap;html=1;shadow=0;strokeWidth=1;spacing=6;spacingTop=-4;" vertex="1" parent="WIyWlLk6GJQsqaUBKTNV-1">
          <mxGeometry x="590" y="930" width="120" height="60" as="geometry" />
        </mxCell>
        <mxCell id="VbYfiZYeQkaGiVDRSeSV-90" style="edgeStyle=orthogonalEdgeStyle;rounded=0;orthogonalLoop=1;jettySize=auto;html=1;entryX=0.75;entryY=0;entryDx=0;entryDy=0;" edge="1" parent="WIyWlLk6GJQsqaUBKTNV-1" source="VbYfiZYeQkaGiVDRSeSV-57" target="VbYfiZYeQkaGiVDRSeSV-72">
          <mxGeometry relative="1" as="geometry">
            <Array as="points">
              <mxPoint x="730" y="1280" />
              <mxPoint x="730" y="130" />
              <mxPoint x="330" y="130" />
            </Array>
          </mxGeometry>
        </mxCell>
        <mxCell id="VbYfiZYeQkaGiVDRSeSV-57" value="Realizar raiz" style="rounded=1;whiteSpace=wrap;html=1;shadow=0;strokeWidth=1;spacing=6;spacingTop=-4;" vertex="1" parent="WIyWlLk6GJQsqaUBKTNV-1">
          <mxGeometry x="430" y="1250" width="120" height="60" as="geometry" />
        </mxCell>
        <mxCell id="VbYfiZYeQkaGiVDRSeSV-58" value="Pedir al usuario que ingrese datos correctos&amp;nbsp;" style="rounded=1;whiteSpace=wrap;html=1;shadow=0;strokeWidth=1;spacing=6;spacingTop=-4;" vertex="1" parent="WIyWlLk6GJQsqaUBKTNV-1">
          <mxGeometry x="590" y="1130" width="120" height="60" as="geometry" />
        </mxCell>
        <mxCell id="VbYfiZYeQkaGiVDRSeSV-82" style="edgeStyle=orthogonalEdgeStyle;rounded=0;orthogonalLoop=1;jettySize=auto;html=1;entryX=1;entryY=0;entryDx=0;entryDy=0;" edge="1" parent="WIyWlLk6GJQsqaUBKTNV-1" source="VbYfiZYeQkaGiVDRSeSV-59" target="VbYfiZYeQkaGiVDRSeSV-72">
          <mxGeometry relative="1" as="geometry">
            <Array as="points">
              <mxPoint x="720" y="1060" />
              <mxPoint x="720" y="130" />
              <mxPoint x="360" y="130" />
            </Array>
          </mxGeometry>
        </mxCell>
        <mxCell id="VbYfiZYeQkaGiVDRSeSV-59" value="Realizar potencia" style="rounded=1;whiteSpace=wrap;html=1;shadow=0;strokeWidth=1;spacing=6;spacingTop=-4;" vertex="1" parent="WIyWlLk6GJQsqaUBKTNV-1">
          <mxGeometry x="425" y="1030" width="120" height="60" as="geometry" />
        </mxCell>
        <mxCell id="VbYfiZYeQkaGiVDRSeSV-68" value="Pedir al usuario que elija una opcion" style="rounded=1;whiteSpace=wrap;html=1;" vertex="1" parent="WIyWlLk6GJQsqaUBKTNV-1">
          <mxGeometry x="45" y="150" width="120" height="60" as="geometry" />
        </mxCell>
        <mxCell id="VbYfiZYeQkaGiVDRSeSV-104" value="" style="edgeStyle=orthogonalEdgeStyle;rounded=0;orthogonalLoop=1;jettySize=auto;html=1;" edge="1" parent="WIyWlLk6GJQsqaUBKTNV-1" source="VbYfiZYeQkaGiVDRSeSV-72" target="VbYfiZYeQkaGiVDRSeSV-68">
          <mxGeometry relative="1" as="geometry" />
        </mxCell>
        <mxCell id="VbYfiZYeQkaGiVDRSeSV-72" value="Dar al usuario el resultado de su operacion" style="rounded=1;whiteSpace=wrap;html=1;" vertex="1" parent="WIyWlLk6GJQsqaUBKTNV-1">
          <mxGeometry x="240" y="150" width="120" height="60" as="geometry" />
        </mxCell>
        <mxCell id="VbYfiZYeQkaGiVDRSeSV-77" value="Yes" style="text;html=1;align=center;verticalAlign=middle;resizable=0;points=[];autosize=1;strokeColor=none;fillColor=none;" vertex="1" parent="WIyWlLk6GJQsqaUBKTNV-1">
          <mxGeometry x="480" y="888" width="40" height="30" as="geometry" />
        </mxCell>
        <mxCell id="VbYfiZYeQkaGiVDRSeSV-78" value="No" style="text;html=1;align=center;verticalAlign=middle;resizable=0;points=[];autosize=1;strokeColor=none;fillColor=none;" vertex="1" parent="WIyWlLk6GJQsqaUBKTNV-1">
          <mxGeometry x="550" y="928" width="40" height="30" as="geometry" />
        </mxCell>
        <mxCell id="VbYfiZYeQkaGiVDRSeSV-80" value="Yes" style="text;html=1;align=center;verticalAlign=middle;resizable=0;points=[];autosize=1;strokeColor=none;fillColor=none;" vertex="1" parent="WIyWlLk6GJQsqaUBKTNV-1">
          <mxGeometry x="490" y="1098" width="40" height="30" as="geometry" />
        </mxCell>
        <mxCell id="VbYfiZYeQkaGiVDRSeSV-81" value="No" style="text;html=1;align=center;verticalAlign=middle;resizable=0;points=[];autosize=1;strokeColor=none;fillColor=none;" vertex="1" parent="WIyWlLk6GJQsqaUBKTNV-1">
          <mxGeometry x="550" y="1158" width="40" height="30" as="geometry" />
        </mxCell>
        <mxCell id="VbYfiZYeQkaGiVDRSeSV-86" value="Pedir al usuario que ingrese un numero valido" style="rounded=1;whiteSpace=wrap;html=1;shadow=0;strokeWidth=1;spacing=6;spacingTop=-4;" vertex="1" parent="WIyWlLk6GJQsqaUBKTNV-1">
          <mxGeometry x="590" y="1359" width="120" height="60" as="geometry" />
        </mxCell>
        <mxCell id="VbYfiZYeQkaGiVDRSeSV-88" value="Yes" style="text;html=1;align=center;verticalAlign=middle;resizable=0;points=[];autosize=1;strokeColor=none;fillColor=none;" vertex="1" parent="WIyWlLk6GJQsqaUBKTNV-1">
          <mxGeometry x="500" y="1308" width="40" height="30" as="geometry" />
        </mxCell>
        <mxCell id="VbYfiZYeQkaGiVDRSeSV-89" value="No" style="text;html=1;align=center;verticalAlign=middle;resizable=0;points=[];autosize=1;strokeColor=none;fillColor=none;" vertex="1" parent="WIyWlLk6GJQsqaUBKTNV-1">
          <mxGeometry x="540" y="1358" width="40" height="30" as="geometry" />
        </mxCell>
        <mxCell id="VbYfiZYeQkaGiVDRSeSV-92" value="No" style="text;html=1;align=center;verticalAlign=middle;resizable=0;points=[];autosize=1;strokeColor=none;fillColor=none;" vertex="1" parent="WIyWlLk6GJQsqaUBKTNV-1">
          <mxGeometry x="100" y="848" width="40" height="30" as="geometry" />
        </mxCell>
        <mxCell id="VbYfiZYeQkaGiVDRSeSV-93" value="Yes" style="text;html=1;align=center;verticalAlign=middle;resizable=0;points=[];autosize=1;strokeColor=none;fillColor=none;" vertex="1" parent="WIyWlLk6GJQsqaUBKTNV-1">
          <mxGeometry x="170" y="928" width="40" height="30" as="geometry" />
        </mxCell>
        <mxCell id="VbYfiZYeQkaGiVDRSeSV-94" value="No" style="text;html=1;align=center;verticalAlign=middle;resizable=0;points=[];autosize=1;strokeColor=none;fillColor=none;" vertex="1" parent="WIyWlLk6GJQsqaUBKTNV-1">
          <mxGeometry x="110" y="1018" width="40" height="30" as="geometry" />
        </mxCell>
        <mxCell id="VbYfiZYeQkaGiVDRSeSV-95" value="Yes" style="text;html=1;align=center;verticalAlign=middle;resizable=0;points=[];autosize=1;strokeColor=none;fillColor=none;" vertex="1" parent="WIyWlLk6GJQsqaUBKTNV-1">
          <mxGeometry x="160" y="1138" width="40" height="30" as="geometry" />
        </mxCell>
        <mxCell id="VbYfiZYeQkaGiVDRSeSV-96" value="No" style="text;html=1;align=center;verticalAlign=middle;resizable=0;points=[];autosize=1;strokeColor=none;fillColor=none;" vertex="1" parent="WIyWlLk6GJQsqaUBKTNV-1">
          <mxGeometry x="100" y="1238" width="40" height="30" as="geometry" />
        </mxCell>
        <mxCell id="VbYfiZYeQkaGiVDRSeSV-97" value="Yes" style="text;html=1;align=center;verticalAlign=middle;resizable=0;points=[];autosize=1;strokeColor=none;fillColor=none;" vertex="1" parent="WIyWlLk6GJQsqaUBKTNV-1">
          <mxGeometry x="170" y="1358" width="40" height="30" as="geometry" />
        </mxCell>
        <mxCell id="VbYfiZYeQkaGiVDRSeSV-98" value="No" style="text;html=1;align=center;verticalAlign=middle;resizable=0;points=[];autosize=1;strokeColor=none;fillColor=none;" vertex="1" parent="WIyWlLk6GJQsqaUBKTNV-1">
          <mxGeometry x="110" y="1448" width="40" height="30" as="geometry" />
        </mxCell>
        <mxCell id="VbYfiZYeQkaGiVDRSeSV-103" style="edgeStyle=orthogonalEdgeStyle;rounded=0;orthogonalLoop=1;jettySize=auto;html=1;entryX=0.75;entryY=0;entryDx=0;entryDy=0;" edge="1" parent="WIyWlLk6GJQsqaUBKTNV-1" source="VbYfiZYeQkaGiVDRSeSV-100" target="VbYfiZYeQkaGiVDRSeSV-68">
          <mxGeometry relative="1" as="geometry">
            <Array as="points">
              <mxPoint x="780" y="1690" />
              <mxPoint x="780" y="70" />
              <mxPoint x="135" y="70" />
            </Array>
          </mxGeometry>
        </mxCell>
        <mxCell id="VbYfiZYeQkaGiVDRSeSV-100" value="Pedir al usuario una opcion valida" style="rounded=1;whiteSpace=wrap;html=1;shadow=0;strokeWidth=1;spacing=6;spacingTop=-4;" vertex="1" parent="WIyWlLk6GJQsqaUBKTNV-1">
          <mxGeometry x="45" y="1660" width="120" height="60" as="geometry" />
        </mxCell>
        <mxCell id="VbYfiZYeQkaGiVDRSeSV-102" value="No" style="text;html=1;align=center;verticalAlign=middle;resizable=0;points=[];autosize=1;strokeColor=none;fillColor=none;" vertex="1" parent="WIyWlLk6GJQsqaUBKTNV-1">
          <mxGeometry x="110" y="1598" width="40" height="30" as="geometry" />
        </mxCell>
      </root>
    </mxGraphModel>
  </diagram>
</mxfile>
